<svg width="88" height="86" viewBox="0 0 88 86" fill="none" xmlns="http://www.w3.org/2000/svg">
<path fill-rule="evenodd" clip-rule="evenodd" d="M67.0312 0C79.75 0 88 8.0625 88 20.4922V65.5078C88 77.9375 79.75 86 67.0312 86H20.9688C8.25 86 0 77.9375 0 65.5078V20.4922C0 8.0625 8.25 0 20.9688 0H67.0312Z" fill="url(#paint0_linear_1_5)"/>
<path fill-rule="evenodd" clip-rule="evenodd" d="M11.7333 68.4417C11.7333 67.848 12.2284 67.3667 12.8272 67.3667H74.4392C75.0435 67.3667 75.5333 67.8438 75.5333 68.4417C75.5333 69.0354 75.0383 69.5167 74.4392 69.5167H12.8272C12.2231 69.5167 11.7333 69.0395 11.7333 68.4417ZM28.6 42.9948C28.6 42.6019 28.9307 42.2833 29.3295 42.2833H41.8038C42.2067 42.2833 42.5333 42.6076 42.5333 42.9948V65.2167H28.6V42.9948ZM44.7333 17.2005C44.7333 16.8044 45.064 16.4833 45.4629 16.4833H57.9371C58.34 16.4833 58.6667 16.8074 58.6667 17.2005V65.2167H44.7333V17.2005ZM60.8667 30.8174C60.8667 30.4212 61.1973 30.1 61.5962 30.1H74.0703C74.4737 30.1 74.8 30.4252 74.8 30.8174V65.2167H60.8667V30.8174ZM12.4667 55.9049C12.4667 55.5064 12.7973 55.1833 13.1962 55.1833H25.6705C26.0734 55.1833 26.4 55.5058 26.4 55.9049V65.2167H12.4667V55.9049Z" fill="white"/>
<defs>
<linearGradient id="paint0_linear_1_5" x1="0" y1="0" x2="0" y2="86" gradientUnits="userSpaceOnUse">
<stop stop-color="#83FB6D"/>
<stop offset="1" stop-color="#11D61D"/>
</linearGradient>
</defs>
</svg>
