<svg width="198" height="66" viewBox="0 0 198 66" fill="none" xmlns="http://www.w3.org/2000/svg">
<rect width="198" height="66" fill="#F5F5F5"/>
<path fill-rule="evenodd" clip-rule="evenodd" d="M182.035 0C191.719 0 198 6.1875 198 15.7266V50.2734C198 59.8125 191.719 66 182.035 66H146.965C137.281 66 131 59.8125 131 50.2734V15.7266C131 6.1875 137.281 0 146.965 0H182.035Z" fill="url(#paint0_linear_0_1)"/>
<path fill-rule="evenodd" clip-rule="evenodd" d="M139.933 52.525C139.933 52.0694 140.31 51.7 140.766 51.7H187.675C188.135 51.7 188.508 52.0662 188.508 52.525C188.508 52.9806 188.131 53.35 187.675 53.35H140.766C140.306 53.35 139.933 52.9838 139.933 52.525ZM152.775 32.996C152.775 32.6945 153.027 32.45 153.33 32.45H162.828C163.135 32.45 163.383 32.6988 163.383 32.996V50.05H152.775V32.996ZM165.058 13.2004C165.058 12.8964 165.31 12.65 165.614 12.65H175.111C175.418 12.65 175.667 12.8987 175.667 13.2004V50.05H165.058V13.2004ZM177.342 23.6505C177.342 23.3465 177.593 23.1 177.897 23.1H187.394C187.702 23.1 187.95 23.3496 187.95 23.6505V50.05H177.342V23.6505ZM140.492 42.9037C140.492 42.5979 140.743 42.35 141.047 42.35H150.545C150.851 42.35 151.1 42.5974 151.1 42.9037V50.05H140.492V42.9037Z" fill="white"/>
<path d="M17.9105 34.4247C17.9531 33.3594 17.642 32.5369 16.9773 31.9574C16.321 31.3778 15.3281 31.0881 13.9986 31.0881C13.0952 31.0881 12.3111 31.2159 11.6463 31.4716C10.9815 31.7188 10.4489 32.0639 10.0483 32.5071C9.65625 32.9418 9.41335 33.4446 9.3196 34.0156C9.22585 34.4844 9.25568 34.8935 9.40909 35.2429C9.57102 35.5923 9.82244 35.8949 10.1634 36.1506C10.5128 36.3977 10.9261 36.6151 11.4034 36.8026C11.8807 36.9815 12.3878 37.1349 12.9247 37.2628L15.1747 37.8253C16.2741 38.081 17.2628 38.4219 18.1406 38.848C19.027 39.2741 19.7685 39.7983 20.3651 40.4205C20.9702 41.0426 21.3963 41.7756 21.6435 42.6193C21.8906 43.4631 21.9247 44.4304 21.7457 45.5213C21.473 47.1236 20.8381 48.5128 19.8409 49.6889C18.8438 50.8565 17.5355 51.7642 15.9162 52.4119C14.2969 53.0511 12.4219 53.3707 10.2912 53.3707C8.17756 53.3707 6.39205 53.0469 4.93466 52.3991C3.47727 51.7514 2.41619 50.7926 1.75142 49.5227C1.09517 48.2443 0.899148 46.6634 1.16335 44.7798H6.51989C6.42614 45.6577 6.55398 46.3906 6.90341 46.9787C7.26136 47.5582 7.79403 47.9972 8.50142 48.2955C9.20881 48.5852 10.0398 48.7301 10.9943 48.7301C11.9403 48.7301 12.7798 48.5937 13.5128 48.321C14.2543 48.0483 14.8551 47.669 15.3153 47.1832C15.7756 46.6974 16.0568 46.1392 16.1591 45.5085C16.2614 44.9205 16.1719 44.4261 15.8906 44.0256C15.6094 43.625 15.1577 43.2841 14.5355 43.0028C13.9219 42.7131 13.1591 42.4574 12.2472 42.2358L9.51136 41.5199C7.39773 40.983 5.79972 40.1435 4.71733 39.0014C3.63494 37.8594 3.24716 36.321 3.55398 34.3864C3.8267 32.8011 4.48722 31.4162 5.53551 30.2315C6.59233 29.0384 7.92188 28.1136 9.52415 27.4574C11.1349 26.7926 12.8949 26.4602 14.804 26.4602C16.7472 26.4602 18.3878 26.7969 19.7259 27.4702C21.0639 28.1349 22.0398 29.0639 22.6534 30.2571C23.267 31.4503 23.4545 32.8395 23.2159 34.4247H17.9105ZM37.8441 33.3636L37.1665 37.4545H25.3285L26.0188 33.3636H37.8441ZM29.4705 28.6591H34.9165L31.8739 46.9659C31.7887 47.4687 31.8015 47.8608 31.9123 48.142C32.0231 48.4148 32.2063 48.6065 32.462 48.7173C32.7262 48.8281 33.0415 48.8835 33.408 48.8835C33.6637 48.8835 33.9237 48.8622 34.1879 48.8196C34.4521 48.7685 34.6523 48.7301 34.7887 48.7045L34.9933 52.7571C34.6864 52.8509 34.2731 52.9531 33.7532 53.0639C33.2418 53.1747 32.6367 53.2429 31.9379 53.2685C30.6083 53.3196 29.4833 53.1449 28.5629 52.7443C27.6424 52.3352 26.9819 51.7088 26.5813 50.8651C26.1808 50.0213 26.0955 48.9602 26.3256 47.6818L29.4705 28.6591ZM46.8058 53.3835C44.8029 53.3835 43.1452 52.9574 41.8327 52.1051C40.5202 51.2443 39.5955 50.0511 39.0586 48.5256C38.5302 46.9915 38.4322 45.206 38.7646 43.169C39.0884 41.1577 39.7617 39.3977 40.7844 37.8892C41.8072 36.3807 43.1069 35.2088 44.6836 34.3736C46.2603 33.5298 48.0373 33.108 50.0146 33.108C52.0089 33.108 53.6623 33.5384 54.9748 34.3991C56.2873 35.2514 57.212 36.4446 57.7489 37.9787C58.2859 39.5128 58.3881 41.2983 58.0558 43.3352C57.7234 45.3381 57.0415 47.0938 56.0103 48.6023C54.979 50.1108 53.6793 51.2869 52.1112 52.1307C50.543 52.9659 48.7745 53.3835 46.8058 53.3835ZM47.3427 49.1648C48.2631 49.1648 49.0771 48.9048 49.7844 48.3849C50.5004 47.8565 51.0927 47.1406 51.5614 46.2372C52.0387 45.3253 52.3711 44.294 52.5586 43.1435C52.7461 42.0099 52.7589 41.0043 52.5969 40.1264C52.435 39.2401 52.0941 38.5412 51.5742 38.0298C51.0629 37.5185 50.3597 37.2628 49.4648 37.2628C48.5444 37.2628 47.7262 37.527 47.0103 38.0554C46.2944 38.5753 45.7021 39.2912 45.2333 40.2031C44.7646 41.1151 44.4364 42.1506 44.2489 43.3097C44.07 44.4347 44.0572 45.4403 44.2106 46.3267C44.364 47.2045 44.7006 47.8991 45.2205 48.4105C45.7404 48.9134 46.4478 49.1648 47.3427 49.1648ZM68.8072 53.3835C66.7873 53.3835 65.1254 52.9574 63.8214 52.1051C62.5259 51.2443 61.6183 50.0511 61.0984 48.5256C60.587 47 60.4975 45.2443 60.8299 43.2585C61.1538 41.2472 61.8313 39.483 62.8626 37.9659C63.8938 36.4403 65.2021 35.2514 66.7873 34.3991C68.381 33.5384 70.1708 33.108 72.1566 33.108C73.8697 33.108 75.3185 33.419 76.5032 34.0412C77.6879 34.6634 78.5572 35.5369 79.1112 36.6619C79.6651 37.7869 79.8526 39.108 79.6737 40.625H74.5472C74.5558 39.6534 74.3043 38.8651 73.793 38.2599C73.2816 37.6548 72.5316 37.3523 71.543 37.3523C70.6907 37.3523 69.9066 37.5824 69.1907 38.0426C68.4833 38.4943 67.8825 39.1548 67.3881 40.0241C66.9023 40.8935 66.5614 41.946 66.3654 43.1818C66.1609 44.4347 66.1566 45.5 66.3526 46.3778C66.5487 47.2557 66.9237 47.9247 67.4776 48.3849C68.0316 48.8452 68.7305 49.0753 69.5742 49.0753C70.2049 49.0753 70.7887 48.9474 71.3256 48.6918C71.8711 48.4361 72.3484 48.0653 72.7575 47.5795C73.1665 47.0852 73.4819 46.4929 73.7035 45.8026H78.8427C78.4933 47.3111 77.8583 48.6321 76.9379 49.7656C76.0259 50.8991 74.8796 51.7855 73.4989 52.4247C72.1183 53.0639 70.5543 53.3835 68.8072 53.3835ZM86.983 47.3494L88.0696 40.8168H88.8622L96.4176 33.3636H102.669L92.5952 43.233H91.2912L86.983 47.3494ZM81.1151 53L85.4616 26.8182H90.9077L86.5611 53H81.1151ZM93.3878 53L89.0412 44.4474L93.2983 40.5994L99.767 53H93.3878ZM111.528 26.8182L115.312 35.7415H115.517L122.318 26.8182H128.749L118.611 39.9091L124.581 53H118.33L114.443 44.0639H114.239L107.386 53H100.93L111.324 39.9091L105.43 26.8182H111.528Z" fill="#FB1C60"/>
<defs>
<linearGradient id="paint0_linear_0_1" x1="131" y1="0" x2="131" y2="66" gradientUnits="userSpaceOnUse">
<stop stop-color="#83FB6D"/>
<stop offset="1" stop-color="#11D61D"/>
</linearGradient>
</defs>
</svg>
